<svg width="169" height="152" viewBox="0 0 169 152" fill="none" xmlns="http://www.w3.org/2000/svg">
<path fill-rule="evenodd" clip-rule="evenodd" d="M42.235 0.381901C35.948 1.9449 31.275 6.3039 28.731 12.9789C28.103 14.6269 21.294 41.6249 13.599 72.9749C2.78501 117.037 -0.296987 131.046 0.0220129 134.695C1.36401 150.016 21.108 156.751 31.791 145.532C35.906 141.211 37.183 137.269 44.399 106.599L49.193 86.2229L51.667 93.8489C53.028 98.0429 54.411 101.475 54.741 101.475C55.07 101.475 56.169 99.1129 57.183 96.2249C58.196 93.3379 62.848 80.8559 67.52 68.4889L76.015 46.0029L72.257 34.4889C64.255 9.9669 61.643 4.9369 55.235 1.7129C52.254 0.213898 45.639 -0.464099 42.235 0.381901ZM115.465 1.0419C107.875 3.4369 106.134 6.7619 95.172 39.7899C89.844 55.8419 85.167 69.3269 84.778 69.7569C84.389 70.1869 83.249 67.8249 82.245 64.5069C81.24 61.1889 80.108 58.4749 79.729 58.4749C79.35 58.4749 74.44 71.0389 68.818 86.3939L58.596 114.313L62.896 127.621C68.844 146.033 73.001 150.475 84.284 150.475C91.012 150.475 95.968 148.353 99.208 144.084C100.553 142.313 105.342 129.49 110.339 114.281C115.162 99.5999 119.423 87.7819 119.806 88.0189C120.19 88.2559 121.057 91.3809 121.733 94.9629C122.409 98.5439 123.248 101.464 123.598 101.45C124.258 101.424 144.163 49.8479 146.069 43.2259C146.975 40.0779 146.693 37.5939 144.313 27.7259C140.798 13.1529 137.449 5.9629 132.755 2.9079C128.083 -0.132102 121.456 -0.848099 115.465 1.0419ZM146.281 64.2019C144.223 69.5769 139.018 83.5639 134.714 95.2829L126.89 116.592L129.306 126.571C133.695 144.697 138.605 150.475 149.62 150.475C155.727 150.475 159.361 149.175 163.074 145.661C166.999 141.948 168.735 138.265 168.735 133.652C168.735 130.412 151.316 55.7229 150.331 54.7379C150.161 54.5679 148.339 58.8269 146.281 64.2019Z" fill="#F5CB5C"/>
<path fill-rule="evenodd" clip-rule="evenodd" d="M42.235 0.381901C35.948 1.9449 31.275 6.3039 28.731 12.9789C28.103 14.6269 21.294 41.6249 13.599 72.9749C2.78501 117.037 -0.296987 131.046 0.0220129 134.695C1.36401 150.016 21.108 156.751 31.791 145.532C35.906 141.211 37.183 137.269 44.399 106.599L49.193 86.2229L51.667 93.8489C53.028 98.0429 54.411 101.475 54.741 101.475C55.07 101.475 56.169 99.1129 57.183 96.2249C58.196 93.3379 62.848 80.8559 67.52 68.4889L76.015 46.0029L72.257 34.4889C64.255 9.9669 61.643 4.9369 55.235 1.7129C52.254 0.213898 45.639 -0.464099 42.235 0.381901ZM115.465 1.0419C107.875 3.4369 106.134 6.7619 95.172 39.7899C89.844 55.8419 85.167 69.3269 84.778 69.7569C84.389 70.1869 83.249 67.8249 82.245 64.5069C81.24 61.1889 80.108 58.4749 79.729 58.4749C79.35 58.4749 74.44 71.0389 68.818 86.3939L58.596 114.313L62.896 127.621C68.844 146.033 73.001 150.475 84.284 150.475C91.012 150.475 95.968 148.353 99.208 144.084C100.553 142.313 105.342 129.49 110.339 114.281C115.162 99.5999 119.423 87.7819 119.806 88.0189C120.19 88.2559 121.057 91.3809 121.733 94.9629C122.409 98.5439 123.248 101.464 123.598 101.45C124.258 101.424 144.163 49.8479 146.069 43.2259C146.975 40.0779 146.693 37.5939 144.313 27.7259C140.798 13.1529 137.449 5.9629 132.755 2.9079C128.083 -0.132102 121.456 -0.848099 115.465 1.0419Z" fill="#0F0F0F"/>
</svg>
